<mxfile host="Electron" agent="Mozilla/5.0 (Windows NT 10.0; Win64; x64) AppleWebKit/537.36 (KHTML, like Gecko) draw.io/24.7.8 Chrome/128.0.6613.36 Electron/32.0.1 Safari/537.36" version="24.7.8">
  <diagram name="Страница — 1" id="XyX01asF92II2D4djbyy">
    <mxGraphModel dx="651" dy="776" grid="1" gridSize="10" guides="1" tooltips="1" connect="1" arrows="1" fold="1" page="1" pageScale="1" pageWidth="827" pageHeight="1169" math="0" shadow="0">
      <root>
        <mxCell id="0" />
        <mxCell id="1" parent="0" />
        <mxCell id="a6Et4iSOfBraLnJkJ6NL-26" value="Loan" style="shape=table;startSize=16;container=1;collapsible=0;childLayout=tableLayout;swimlaneFillColor=default;" parent="1" vertex="1">
          <mxGeometry x="159" y="370" width="122" height="120" as="geometry" />
        </mxCell>
        <mxCell id="a6Et4iSOfBraLnJkJ6NL-27" value="" style="shape=tableRow;horizontal=0;startSize=0;swimlaneHead=0;swimlaneBody=0;strokeColor=inherit;top=0;left=0;bottom=0;right=0;collapsible=0;dropTarget=0;fillColor=none;points=[[0,0.5],[1,0.5]];portConstraint=eastwest;" parent="a6Et4iSOfBraLnJkJ6NL-26" vertex="1">
          <mxGeometry y="16" width="122" height="21" as="geometry" />
        </mxCell>
        <mxCell id="a6Et4iSOfBraLnJkJ6NL-28" value="PK" style="shape=partialRectangle;html=1;whiteSpace=wrap;connectable=0;strokeColor=inherit;overflow=hidden;fillColor=none;top=0;left=0;bottom=0;right=0;pointerEvents=1;" parent="a6Et4iSOfBraLnJkJ6NL-27" vertex="1">
          <mxGeometry width="32" height="21" as="geometry">
            <mxRectangle width="32" height="21" as="alternateBounds" />
          </mxGeometry>
        </mxCell>
        <mxCell id="a6Et4iSOfBraLnJkJ6NL-29" value="&lt;span style=&quot;text-wrap: nowrap;&quot;&gt;LoanID&lt;/span&gt;" style="shape=partialRectangle;html=1;whiteSpace=wrap;connectable=0;strokeColor=inherit;overflow=hidden;fillColor=none;top=0;left=0;bottom=0;right=0;pointerEvents=1;" parent="a6Et4iSOfBraLnJkJ6NL-27" vertex="1">
          <mxGeometry x="32" width="90" height="21" as="geometry">
            <mxRectangle width="90" height="21" as="alternateBounds" />
          </mxGeometry>
        </mxCell>
        <mxCell id="a6Et4iSOfBraLnJkJ6NL-30" value="" style="shape=tableRow;horizontal=0;startSize=0;swimlaneHead=0;swimlaneBody=0;strokeColor=inherit;top=0;left=0;bottom=0;right=0;collapsible=0;dropTarget=0;fillColor=none;points=[[0,0.5],[1,0.5]];portConstraint=eastwest;" parent="a6Et4iSOfBraLnJkJ6NL-26" vertex="1">
          <mxGeometry y="37" width="122" height="20" as="geometry" />
        </mxCell>
        <mxCell id="a6Et4iSOfBraLnJkJ6NL-31" value="FK" style="shape=partialRectangle;html=1;whiteSpace=wrap;connectable=0;strokeColor=inherit;overflow=hidden;fillColor=none;top=0;left=0;bottom=0;right=0;pointerEvents=1;" parent="a6Et4iSOfBraLnJkJ6NL-30" vertex="1">
          <mxGeometry width="32" height="20" as="geometry">
            <mxRectangle width="32" height="20" as="alternateBounds" />
          </mxGeometry>
        </mxCell>
        <mxCell id="a6Et4iSOfBraLnJkJ6NL-32" value="ItemID" style="shape=partialRectangle;html=1;whiteSpace=wrap;connectable=0;strokeColor=inherit;overflow=hidden;fillColor=none;top=0;left=0;bottom=0;right=0;pointerEvents=1;" parent="a6Et4iSOfBraLnJkJ6NL-30" vertex="1">
          <mxGeometry x="32" width="90" height="20" as="geometry">
            <mxRectangle width="90" height="20" as="alternateBounds" />
          </mxGeometry>
        </mxCell>
        <mxCell id="a6Et4iSOfBraLnJkJ6NL-33" value="" style="shape=tableRow;horizontal=0;startSize=0;swimlaneHead=0;swimlaneBody=0;strokeColor=inherit;top=0;left=0;bottom=0;right=0;collapsible=0;dropTarget=0;fillColor=none;points=[[0,0.5],[1,0.5]];portConstraint=eastwest;" parent="a6Et4iSOfBraLnJkJ6NL-26" vertex="1">
          <mxGeometry y="57" width="122" height="21" as="geometry" />
        </mxCell>
        <mxCell id="a6Et4iSOfBraLnJkJ6NL-34" value="" style="shape=partialRectangle;html=1;whiteSpace=wrap;connectable=0;strokeColor=inherit;overflow=hidden;fillColor=none;top=0;left=0;bottom=0;right=0;pointerEvents=1;" parent="a6Et4iSOfBraLnJkJ6NL-33" vertex="1">
          <mxGeometry width="32" height="21" as="geometry">
            <mxRectangle width="32" height="21" as="alternateBounds" />
          </mxGeometry>
        </mxCell>
        <mxCell id="a6Et4iSOfBraLnJkJ6NL-35" value="LoanAmount" style="shape=partialRectangle;html=1;whiteSpace=wrap;connectable=0;strokeColor=inherit;overflow=hidden;fillColor=none;top=0;left=0;bottom=0;right=0;pointerEvents=1;" parent="a6Et4iSOfBraLnJkJ6NL-33" vertex="1">
          <mxGeometry x="32" width="90" height="21" as="geometry">
            <mxRectangle width="90" height="21" as="alternateBounds" />
          </mxGeometry>
        </mxCell>
        <mxCell id="a6Et4iSOfBraLnJkJ6NL-36" value="" style="shape=tableRow;horizontal=0;startSize=0;swimlaneHead=0;swimlaneBody=0;strokeColor=inherit;top=0;left=0;bottom=0;right=0;collapsible=0;dropTarget=0;fillColor=none;points=[[0,0.5],[1,0.5]];portConstraint=eastwest;" parent="a6Et4iSOfBraLnJkJ6NL-26" vertex="1">
          <mxGeometry y="78" width="122" height="21" as="geometry" />
        </mxCell>
        <mxCell id="a6Et4iSOfBraLnJkJ6NL-37" value="" style="shape=partialRectangle;html=1;whiteSpace=wrap;connectable=0;strokeColor=inherit;overflow=hidden;fillColor=none;top=0;left=0;bottom=0;right=0;pointerEvents=1;" parent="a6Et4iSOfBraLnJkJ6NL-36" vertex="1">
          <mxGeometry width="32" height="21" as="geometry">
            <mxRectangle width="32" height="21" as="alternateBounds" />
          </mxGeometry>
        </mxCell>
        <mxCell id="a6Et4iSOfBraLnJkJ6NL-38" value="&lt;span style=&quot;text-wrap: nowrap;&quot;&gt;Comission&lt;/span&gt;" style="shape=partialRectangle;html=1;whiteSpace=wrap;connectable=0;strokeColor=inherit;overflow=hidden;fillColor=none;top=0;left=0;bottom=0;right=0;pointerEvents=1;" parent="a6Et4iSOfBraLnJkJ6NL-36" vertex="1">
          <mxGeometry x="32" width="90" height="21" as="geometry">
            <mxRectangle width="90" height="21" as="alternateBounds" />
          </mxGeometry>
        </mxCell>
        <mxCell id="a6Et4iSOfBraLnJkJ6NL-39" value="" style="shape=tableRow;horizontal=0;startSize=0;swimlaneHead=0;swimlaneBody=0;strokeColor=inherit;top=0;left=0;bottom=0;right=0;collapsible=0;dropTarget=0;fillColor=none;points=[[0,0.5],[1,0.5]];portConstraint=eastwest;" parent="a6Et4iSOfBraLnJkJ6NL-26" vertex="1">
          <mxGeometry y="99" width="122" height="21" as="geometry" />
        </mxCell>
        <mxCell id="a6Et4iSOfBraLnJkJ6NL-40" value="" style="shape=partialRectangle;html=1;whiteSpace=wrap;connectable=0;strokeColor=inherit;overflow=hidden;fillColor=none;top=0;left=0;bottom=0;right=0;pointerEvents=1;" parent="a6Et4iSOfBraLnJkJ6NL-39" vertex="1">
          <mxGeometry width="32" height="21" as="geometry">
            <mxRectangle width="32" height="21" as="alternateBounds" />
          </mxGeometry>
        </mxCell>
        <mxCell id="a6Et4iSOfBraLnJkJ6NL-41" value="&lt;span style=&quot;text-wrap: nowrap;&quot;&gt;ReturnDate&lt;/span&gt;" style="shape=partialRectangle;html=1;whiteSpace=wrap;connectable=0;strokeColor=inherit;overflow=hidden;fillColor=none;top=0;left=0;bottom=0;right=0;pointerEvents=1;" parent="a6Et4iSOfBraLnJkJ6NL-39" vertex="1">
          <mxGeometry x="32" width="90" height="21" as="geometry">
            <mxRectangle width="90" height="21" as="alternateBounds" />
          </mxGeometry>
        </mxCell>
        <mxCell id="a6Et4iSOfBraLnJkJ6NL-96" style="edgeStyle=orthogonalEdgeStyle;rounded=0;orthogonalLoop=1;jettySize=auto;html=1;startArrow=ERone;startFill=0;endArrow=ERmany;endFill=0;exitX=1;exitY=0.5;exitDx=0;exitDy=0;entryX=0.5;entryY=0;entryDx=0;entryDy=0;" parent="1" source="a6Et4iSOfBraLnJkJ6NL-64" target="a6Et4iSOfBraLnJkJ6NL-42" edge="1">
          <mxGeometry relative="1" as="geometry">
            <mxPoint x="480" y="400" as="targetPoint" />
          </mxGeometry>
        </mxCell>
        <mxCell id="a6Et4iSOfBraLnJkJ6NL-42" value="Item" style="shape=table;startSize=17;container=1;collapsible=0;childLayout=tableLayout;swimlaneFillColor=default;" parent="1" vertex="1">
          <mxGeometry x="560" y="200" width="134.27761904761883" height="135" as="geometry" />
        </mxCell>
        <mxCell id="a6Et4iSOfBraLnJkJ6NL-43" value="" style="shape=tableRow;horizontal=0;startSize=0;swimlaneHead=0;swimlaneBody=0;strokeColor=inherit;top=0;left=0;bottom=0;right=0;collapsible=0;dropTarget=0;fillColor=none;points=[[0,0.5],[1,0.5]];portConstraint=eastwest;" parent="a6Et4iSOfBraLnJkJ6NL-42" vertex="1">
          <mxGeometry y="17" width="134.27761904761883" height="20" as="geometry" />
        </mxCell>
        <mxCell id="a6Et4iSOfBraLnJkJ6NL-44" value="PK" style="shape=partialRectangle;html=1;whiteSpace=wrap;connectable=0;strokeColor=inherit;overflow=hidden;fillColor=none;top=0;left=0;bottom=0;right=0;pointerEvents=1;" parent="a6Et4iSOfBraLnJkJ6NL-43" vertex="1">
          <mxGeometry width="30" height="20" as="geometry">
            <mxRectangle width="30" height="20" as="alternateBounds" />
          </mxGeometry>
        </mxCell>
        <mxCell id="a6Et4iSOfBraLnJkJ6NL-45" value="ItemID" style="shape=partialRectangle;html=1;whiteSpace=wrap;connectable=0;strokeColor=inherit;overflow=hidden;fillColor=none;top=0;left=0;bottom=0;right=0;pointerEvents=1;" parent="a6Et4iSOfBraLnJkJ6NL-43" vertex="1">
          <mxGeometry x="30" width="104" height="20" as="geometry">
            <mxRectangle width="104" height="20" as="alternateBounds" />
          </mxGeometry>
        </mxCell>
        <mxCell id="a6Et4iSOfBraLnJkJ6NL-46" value="" style="shape=tableRow;horizontal=0;startSize=0;swimlaneHead=0;swimlaneBody=0;strokeColor=inherit;top=0;left=0;bottom=0;right=0;collapsible=0;dropTarget=0;fillColor=none;points=[[0,0.5],[1,0.5]];portConstraint=eastwest;" parent="a6Et4iSOfBraLnJkJ6NL-42" vertex="1">
          <mxGeometry y="37" width="134.27761904761883" height="20" as="geometry" />
        </mxCell>
        <mxCell id="a6Et4iSOfBraLnJkJ6NL-47" value="" style="shape=partialRectangle;html=1;whiteSpace=wrap;connectable=0;strokeColor=inherit;overflow=hidden;fillColor=none;top=0;left=0;bottom=0;right=0;pointerEvents=1;" parent="a6Et4iSOfBraLnJkJ6NL-46" vertex="1">
          <mxGeometry width="30" height="20" as="geometry">
            <mxRectangle width="30" height="20" as="alternateBounds" />
          </mxGeometry>
        </mxCell>
        <mxCell id="a6Et4iSOfBraLnJkJ6NL-48" value="Name" style="shape=partialRectangle;html=1;whiteSpace=wrap;connectable=0;strokeColor=inherit;overflow=hidden;fillColor=none;top=0;left=0;bottom=0;right=0;pointerEvents=1;" parent="a6Et4iSOfBraLnJkJ6NL-46" vertex="1">
          <mxGeometry x="30" width="104" height="20" as="geometry">
            <mxRectangle width="104" height="20" as="alternateBounds" />
          </mxGeometry>
        </mxCell>
        <mxCell id="TgLSgAsr1P6bt93IIMin-33" value="" style="shape=tableRow;horizontal=0;startSize=0;swimlaneHead=0;swimlaneBody=0;strokeColor=inherit;top=0;left=0;bottom=0;right=0;collapsible=0;dropTarget=0;fillColor=none;points=[[0,0.5],[1,0.5]];portConstraint=eastwest;" vertex="1" parent="a6Et4iSOfBraLnJkJ6NL-42">
          <mxGeometry y="57" width="134.27761904761883" height="19" as="geometry" />
        </mxCell>
        <mxCell id="TgLSgAsr1P6bt93IIMin-34" value="" style="shape=partialRectangle;html=1;whiteSpace=wrap;connectable=0;strokeColor=inherit;overflow=hidden;fillColor=none;top=0;left=0;bottom=0;right=0;pointerEvents=1;" vertex="1" parent="TgLSgAsr1P6bt93IIMin-33">
          <mxGeometry width="30" height="19" as="geometry">
            <mxRectangle width="30" height="19" as="alternateBounds" />
          </mxGeometry>
        </mxCell>
        <mxCell id="TgLSgAsr1P6bt93IIMin-35" value="Description" style="shape=partialRectangle;html=1;whiteSpace=wrap;connectable=0;strokeColor=inherit;overflow=hidden;fillColor=none;top=0;left=0;bottom=0;right=0;pointerEvents=1;" vertex="1" parent="TgLSgAsr1P6bt93IIMin-33">
          <mxGeometry x="30" width="104" height="19" as="geometry">
            <mxRectangle width="104" height="19" as="alternateBounds" />
          </mxGeometry>
        </mxCell>
        <mxCell id="a6Et4iSOfBraLnJkJ6NL-49" value="" style="shape=tableRow;horizontal=0;startSize=0;swimlaneHead=0;swimlaneBody=0;strokeColor=inherit;top=0;left=0;bottom=0;right=0;collapsible=0;dropTarget=0;fillColor=none;points=[[0,0.5],[1,0.5]];portConstraint=eastwest;" parent="a6Et4iSOfBraLnJkJ6NL-42" vertex="1">
          <mxGeometry y="76" width="134.27761904761883" height="19" as="geometry" />
        </mxCell>
        <mxCell id="a6Et4iSOfBraLnJkJ6NL-50" value="" style="shape=partialRectangle;html=1;whiteSpace=wrap;connectable=0;strokeColor=inherit;overflow=hidden;fillColor=none;top=0;left=0;bottom=0;right=0;pointerEvents=1;" parent="a6Et4iSOfBraLnJkJ6NL-49" vertex="1">
          <mxGeometry width="30" height="19" as="geometry">
            <mxRectangle width="30" height="19" as="alternateBounds" />
          </mxGeometry>
        </mxCell>
        <mxCell id="a6Et4iSOfBraLnJkJ6NL-51" value="Description" style="shape=partialRectangle;html=1;whiteSpace=wrap;connectable=0;strokeColor=inherit;overflow=hidden;fillColor=none;top=0;left=0;bottom=0;right=0;pointerEvents=1;" parent="a6Et4iSOfBraLnJkJ6NL-49" vertex="1">
          <mxGeometry x="30" width="104" height="19" as="geometry">
            <mxRectangle width="104" height="19" as="alternateBounds" />
          </mxGeometry>
        </mxCell>
        <mxCell id="a6Et4iSOfBraLnJkJ6NL-55" value="" style="shape=tableRow;horizontal=0;startSize=0;swimlaneHead=0;swimlaneBody=0;strokeColor=inherit;top=0;left=0;bottom=0;right=0;collapsible=0;dropTarget=0;fillColor=none;points=[[0,0.5],[1,0.5]];portConstraint=eastwest;" parent="a6Et4iSOfBraLnJkJ6NL-42" vertex="1">
          <mxGeometry y="95" width="134.27761904761883" height="20" as="geometry" />
        </mxCell>
        <mxCell id="a6Et4iSOfBraLnJkJ6NL-56" value="" style="shape=partialRectangle;html=1;whiteSpace=wrap;connectable=0;strokeColor=inherit;overflow=hidden;fillColor=none;top=0;left=0;bottom=0;right=0;pointerEvents=1;" parent="a6Et4iSOfBraLnJkJ6NL-55" vertex="1">
          <mxGeometry width="30" height="20" as="geometry">
            <mxRectangle width="30" height="20" as="alternateBounds" />
          </mxGeometry>
        </mxCell>
        <mxCell id="a6Et4iSOfBraLnJkJ6NL-57" value="EvaluationCost" style="shape=partialRectangle;html=1;whiteSpace=wrap;connectable=0;strokeColor=inherit;overflow=hidden;fillColor=none;top=0;left=0;bottom=0;right=0;pointerEvents=1;" parent="a6Et4iSOfBraLnJkJ6NL-55" vertex="1">
          <mxGeometry x="30" width="104" height="20" as="geometry">
            <mxRectangle width="104" height="20" as="alternateBounds" />
          </mxGeometry>
        </mxCell>
        <mxCell id="a6Et4iSOfBraLnJkJ6NL-52" value="" style="shape=tableRow;horizontal=0;startSize=0;swimlaneHead=0;swimlaneBody=0;strokeColor=inherit;top=0;left=0;bottom=0;right=0;collapsible=0;dropTarget=0;fillColor=none;points=[[0,0.5],[1,0.5]];portConstraint=eastwest;" parent="a6Et4iSOfBraLnJkJ6NL-42" vertex="1">
          <mxGeometry y="115" width="134.27761904761883" height="20" as="geometry" />
        </mxCell>
        <mxCell id="a6Et4iSOfBraLnJkJ6NL-53" value="FK" style="shape=partialRectangle;html=1;whiteSpace=wrap;connectable=0;strokeColor=inherit;overflow=hidden;fillColor=none;top=0;left=0;bottom=0;right=0;pointerEvents=1;" parent="a6Et4iSOfBraLnJkJ6NL-52" vertex="1">
          <mxGeometry width="30" height="20" as="geometry">
            <mxRectangle width="30" height="20" as="alternateBounds" />
          </mxGeometry>
        </mxCell>
        <mxCell id="a6Et4iSOfBraLnJkJ6NL-54" value="ClientID" style="shape=partialRectangle;html=1;whiteSpace=wrap;connectable=0;strokeColor=inherit;overflow=hidden;fillColor=none;top=0;left=0;bottom=0;right=0;pointerEvents=1;" parent="a6Et4iSOfBraLnJkJ6NL-52" vertex="1">
          <mxGeometry x="30" width="104" height="20" as="geometry">
            <mxRectangle width="104" height="20" as="alternateBounds" />
          </mxGeometry>
        </mxCell>
        <mxCell id="a6Et4iSOfBraLnJkJ6NL-95" style="edgeStyle=orthogonalEdgeStyle;rounded=0;orthogonalLoop=1;jettySize=auto;html=1;entryX=0.5;entryY=0;entryDx=0;entryDy=0;startArrow=ERone;startFill=0;endArrow=ERmany;endFill=0;exitX=0;exitY=0.5;exitDx=0;exitDy=0;" parent="1" source="a6Et4iSOfBraLnJkJ6NL-64" target="a6Et4iSOfBraLnJkJ6NL-82" edge="1">
          <mxGeometry relative="1" as="geometry">
            <mxPoint x="271" y="480" as="sourcePoint" />
            <mxPoint x="329" y="567" as="targetPoint" />
          </mxGeometry>
        </mxCell>
        <mxCell id="a6Et4iSOfBraLnJkJ6NL-63" value="Client" style="shape=table;startSize=17;container=1;collapsible=0;childLayout=tableLayout;swimlaneFillColor=default;" parent="1" vertex="1">
          <mxGeometry x="354" y="100" width="120" height="138" as="geometry" />
        </mxCell>
        <mxCell id="a6Et4iSOfBraLnJkJ6NL-64" value="" style="shape=tableRow;horizontal=0;startSize=0;swimlaneHead=0;swimlaneBody=0;strokeColor=inherit;top=0;left=0;bottom=0;right=0;collapsible=0;dropTarget=0;fillColor=none;points=[[0,0.5],[1,0.5]];portConstraint=eastwest;" parent="a6Et4iSOfBraLnJkJ6NL-63" vertex="1">
          <mxGeometry y="17" width="120" height="20" as="geometry" />
        </mxCell>
        <mxCell id="a6Et4iSOfBraLnJkJ6NL-65" value="PK" style="shape=partialRectangle;html=1;whiteSpace=wrap;connectable=0;strokeColor=inherit;overflow=hidden;fillColor=none;top=0;left=0;bottom=0;right=0;pointerEvents=1;" parent="a6Et4iSOfBraLnJkJ6NL-64" vertex="1">
          <mxGeometry width="30" height="20" as="geometry">
            <mxRectangle width="30" height="20" as="alternateBounds" />
          </mxGeometry>
        </mxCell>
        <mxCell id="a6Et4iSOfBraLnJkJ6NL-66" value="ClientID" style="shape=partialRectangle;html=1;whiteSpace=wrap;connectable=0;strokeColor=inherit;overflow=hidden;fillColor=none;top=0;left=0;bottom=0;right=0;pointerEvents=1;" parent="a6Et4iSOfBraLnJkJ6NL-64" vertex="1">
          <mxGeometry x="30" width="90" height="20" as="geometry">
            <mxRectangle width="90" height="20" as="alternateBounds" />
          </mxGeometry>
        </mxCell>
        <mxCell id="a6Et4iSOfBraLnJkJ6NL-67" value="" style="shape=tableRow;horizontal=0;startSize=0;swimlaneHead=0;swimlaneBody=0;strokeColor=inherit;top=0;left=0;bottom=0;right=0;collapsible=0;dropTarget=0;fillColor=none;points=[[0,0.5],[1,0.5]];portConstraint=eastwest;" parent="a6Et4iSOfBraLnJkJ6NL-63" vertex="1">
          <mxGeometry y="37" width="120" height="19" as="geometry" />
        </mxCell>
        <mxCell id="a6Et4iSOfBraLnJkJ6NL-68" value="" style="shape=partialRectangle;html=1;whiteSpace=wrap;connectable=0;strokeColor=inherit;overflow=hidden;fillColor=none;top=0;left=0;bottom=0;right=0;pointerEvents=1;" parent="a6Et4iSOfBraLnJkJ6NL-67" vertex="1">
          <mxGeometry width="30" height="19" as="geometry">
            <mxRectangle width="30" height="19" as="alternateBounds" />
          </mxGeometry>
        </mxCell>
        <mxCell id="a6Et4iSOfBraLnJkJ6NL-69" value="LastName" style="shape=partialRectangle;html=1;whiteSpace=wrap;connectable=0;strokeColor=inherit;overflow=hidden;fillColor=none;top=0;left=0;bottom=0;right=0;pointerEvents=1;" parent="a6Et4iSOfBraLnJkJ6NL-67" vertex="1">
          <mxGeometry x="30" width="90" height="19" as="geometry">
            <mxRectangle width="90" height="19" as="alternateBounds" />
          </mxGeometry>
        </mxCell>
        <mxCell id="a6Et4iSOfBraLnJkJ6NL-70" value="" style="shape=tableRow;horizontal=0;startSize=0;swimlaneHead=0;swimlaneBody=0;strokeColor=inherit;top=0;left=0;bottom=0;right=0;collapsible=0;dropTarget=0;fillColor=none;points=[[0,0.5],[1,0.5]];portConstraint=eastwest;" parent="a6Et4iSOfBraLnJkJ6NL-63" vertex="1">
          <mxGeometry y="56" width="120" height="22" as="geometry" />
        </mxCell>
        <mxCell id="a6Et4iSOfBraLnJkJ6NL-71" value="" style="shape=partialRectangle;html=1;whiteSpace=wrap;connectable=0;strokeColor=inherit;overflow=hidden;fillColor=none;top=0;left=0;bottom=0;right=0;pointerEvents=1;" parent="a6Et4iSOfBraLnJkJ6NL-70" vertex="1">
          <mxGeometry width="30" height="22" as="geometry">
            <mxRectangle width="30" height="22" as="alternateBounds" />
          </mxGeometry>
        </mxCell>
        <mxCell id="a6Et4iSOfBraLnJkJ6NL-72" value="FirstName" style="shape=partialRectangle;html=1;whiteSpace=wrap;connectable=0;strokeColor=inherit;overflow=hidden;fillColor=none;top=0;left=0;bottom=0;right=0;pointerEvents=1;" parent="a6Et4iSOfBraLnJkJ6NL-70" vertex="1">
          <mxGeometry x="30" width="90" height="22" as="geometry">
            <mxRectangle width="90" height="22" as="alternateBounds" />
          </mxGeometry>
        </mxCell>
        <mxCell id="a6Et4iSOfBraLnJkJ6NL-73" value="" style="shape=tableRow;horizontal=0;startSize=0;swimlaneHead=0;swimlaneBody=0;strokeColor=inherit;top=0;left=0;bottom=0;right=0;collapsible=0;dropTarget=0;fillColor=none;points=[[0,0.5],[1,0.5]];portConstraint=eastwest;" parent="a6Et4iSOfBraLnJkJ6NL-63" vertex="1">
          <mxGeometry y="78" width="120" height="20" as="geometry" />
        </mxCell>
        <mxCell id="a6Et4iSOfBraLnJkJ6NL-74" value="" style="shape=partialRectangle;html=1;whiteSpace=wrap;connectable=0;strokeColor=inherit;overflow=hidden;fillColor=none;top=0;left=0;bottom=0;right=0;pointerEvents=1;" parent="a6Et4iSOfBraLnJkJ6NL-73" vertex="1">
          <mxGeometry width="30" height="20" as="geometry">
            <mxRectangle width="30" height="20" as="alternateBounds" />
          </mxGeometry>
        </mxCell>
        <mxCell id="a6Et4iSOfBraLnJkJ6NL-75" value="MiddleName" style="shape=partialRectangle;html=1;whiteSpace=wrap;connectable=0;strokeColor=inherit;overflow=hidden;fillColor=none;top=0;left=0;bottom=0;right=0;pointerEvents=1;" parent="a6Et4iSOfBraLnJkJ6NL-73" vertex="1">
          <mxGeometry x="30" width="90" height="20" as="geometry">
            <mxRectangle width="90" height="20" as="alternateBounds" />
          </mxGeometry>
        </mxCell>
        <mxCell id="a6Et4iSOfBraLnJkJ6NL-76" value="" style="shape=tableRow;horizontal=0;startSize=0;swimlaneHead=0;swimlaneBody=0;strokeColor=inherit;top=0;left=0;bottom=0;right=0;collapsible=0;dropTarget=0;fillColor=none;points=[[0,0.5],[1,0.5]];portConstraint=eastwest;" parent="a6Et4iSOfBraLnJkJ6NL-63" vertex="1">
          <mxGeometry y="98" width="120" height="20" as="geometry" />
        </mxCell>
        <mxCell id="a6Et4iSOfBraLnJkJ6NL-77" value="" style="shape=partialRectangle;html=1;whiteSpace=wrap;connectable=0;strokeColor=inherit;overflow=hidden;fillColor=none;top=0;left=0;bottom=0;right=0;pointerEvents=1;" parent="a6Et4iSOfBraLnJkJ6NL-76" vertex="1">
          <mxGeometry width="30" height="20" as="geometry">
            <mxRectangle width="30" height="20" as="alternateBounds" />
          </mxGeometry>
        </mxCell>
        <mxCell id="a6Et4iSOfBraLnJkJ6NL-78" value="Address" style="shape=partialRectangle;html=1;whiteSpace=wrap;connectable=0;strokeColor=inherit;overflow=hidden;fillColor=none;top=0;left=0;bottom=0;right=0;pointerEvents=1;" parent="a6Et4iSOfBraLnJkJ6NL-76" vertex="1">
          <mxGeometry x="30" width="90" height="20" as="geometry">
            <mxRectangle width="90" height="20" as="alternateBounds" />
          </mxGeometry>
        </mxCell>
        <mxCell id="a6Et4iSOfBraLnJkJ6NL-79" value="" style="shape=tableRow;horizontal=0;startSize=0;swimlaneHead=0;swimlaneBody=0;strokeColor=inherit;top=0;left=0;bottom=0;right=0;collapsible=0;dropTarget=0;fillColor=none;points=[[0,0.5],[1,0.5]];portConstraint=eastwest;" parent="a6Et4iSOfBraLnJkJ6NL-63" vertex="1">
          <mxGeometry y="118" width="120" height="20" as="geometry" />
        </mxCell>
        <mxCell id="a6Et4iSOfBraLnJkJ6NL-80" value="" style="shape=partialRectangle;html=1;whiteSpace=wrap;connectable=0;strokeColor=inherit;overflow=hidden;fillColor=none;top=0;left=0;bottom=0;right=0;pointerEvents=1;" parent="a6Et4iSOfBraLnJkJ6NL-79" vertex="1">
          <mxGeometry width="30" height="20" as="geometry">
            <mxRectangle width="30" height="20" as="alternateBounds" />
          </mxGeometry>
        </mxCell>
        <mxCell id="a6Et4iSOfBraLnJkJ6NL-81" value="Phone" style="shape=partialRectangle;html=1;whiteSpace=wrap;connectable=0;strokeColor=inherit;overflow=hidden;fillColor=none;top=0;left=0;bottom=0;right=0;pointerEvents=1;" parent="a6Et4iSOfBraLnJkJ6NL-79" vertex="1">
          <mxGeometry x="30" width="90" height="20" as="geometry">
            <mxRectangle width="90" height="20" as="alternateBounds" />
          </mxGeometry>
        </mxCell>
        <mxCell id="a6Et4iSOfBraLnJkJ6NL-82" value="Document" style="shape=table;startSize=17;container=1;collapsible=0;childLayout=tableLayout;swimlaneFillColor=default;" parent="1" vertex="1">
          <mxGeometry x="160" y="200" width="120" height="97" as="geometry" />
        </mxCell>
        <mxCell id="a6Et4iSOfBraLnJkJ6NL-83" value="" style="shape=tableRow;horizontal=0;startSize=0;swimlaneHead=0;swimlaneBody=0;strokeColor=inherit;top=0;left=0;bottom=0;right=0;collapsible=0;dropTarget=0;fillColor=none;points=[[0,0.5],[1,0.5]];portConstraint=eastwest;" parent="a6Et4iSOfBraLnJkJ6NL-82" vertex="1">
          <mxGeometry y="17" width="120" height="20" as="geometry" />
        </mxCell>
        <mxCell id="a6Et4iSOfBraLnJkJ6NL-84" value="PK" style="shape=partialRectangle;html=1;whiteSpace=wrap;connectable=0;strokeColor=inherit;overflow=hidden;fillColor=none;top=0;left=0;bottom=0;right=0;pointerEvents=1;" parent="a6Et4iSOfBraLnJkJ6NL-83" vertex="1">
          <mxGeometry width="30" height="20" as="geometry">
            <mxRectangle width="30" height="20" as="alternateBounds" />
          </mxGeometry>
        </mxCell>
        <mxCell id="a6Et4iSOfBraLnJkJ6NL-85" value="DocumentID" style="shape=partialRectangle;html=1;whiteSpace=wrap;connectable=0;strokeColor=inherit;overflow=hidden;fillColor=none;top=0;left=0;bottom=0;right=0;pointerEvents=1;" parent="a6Et4iSOfBraLnJkJ6NL-83" vertex="1">
          <mxGeometry x="30" width="90" height="20" as="geometry">
            <mxRectangle width="90" height="20" as="alternateBounds" />
          </mxGeometry>
        </mxCell>
        <mxCell id="a6Et4iSOfBraLnJkJ6NL-86" value="" style="shape=tableRow;horizontal=0;startSize=0;swimlaneHead=0;swimlaneBody=0;strokeColor=inherit;top=0;left=0;bottom=0;right=0;collapsible=0;dropTarget=0;fillColor=none;points=[[0,0.5],[1,0.5]];portConstraint=eastwest;" parent="a6Et4iSOfBraLnJkJ6NL-82" vertex="1">
          <mxGeometry y="37" width="120" height="20" as="geometry" />
        </mxCell>
        <mxCell id="a6Et4iSOfBraLnJkJ6NL-87" value="FK" style="shape=partialRectangle;html=1;whiteSpace=wrap;connectable=0;strokeColor=inherit;overflow=hidden;fillColor=none;top=0;left=0;bottom=0;right=0;pointerEvents=1;" parent="a6Et4iSOfBraLnJkJ6NL-86" vertex="1">
          <mxGeometry width="30" height="20" as="geometry">
            <mxRectangle width="30" height="20" as="alternateBounds" />
          </mxGeometry>
        </mxCell>
        <mxCell id="a6Et4iSOfBraLnJkJ6NL-88" value="LoanID" style="shape=partialRectangle;html=1;whiteSpace=wrap;connectable=0;strokeColor=inherit;overflow=hidden;fillColor=none;top=0;left=0;bottom=0;right=0;pointerEvents=1;" parent="a6Et4iSOfBraLnJkJ6NL-86" vertex="1">
          <mxGeometry x="30" width="90" height="20" as="geometry">
            <mxRectangle width="90" height="20" as="alternateBounds" />
          </mxGeometry>
        </mxCell>
        <mxCell id="a6Et4iSOfBraLnJkJ6NL-89" value="" style="shape=tableRow;horizontal=0;startSize=0;swimlaneHead=0;swimlaneBody=0;strokeColor=inherit;top=0;left=0;bottom=0;right=0;collapsible=0;dropTarget=0;fillColor=none;points=[[0,0.5],[1,0.5]];portConstraint=eastwest;" parent="a6Et4iSOfBraLnJkJ6NL-82" vertex="1">
          <mxGeometry y="57" width="120" height="20" as="geometry" />
        </mxCell>
        <mxCell id="a6Et4iSOfBraLnJkJ6NL-90" value="FK" style="shape=partialRectangle;html=1;whiteSpace=wrap;connectable=0;strokeColor=inherit;overflow=hidden;fillColor=none;top=0;left=0;bottom=0;right=0;pointerEvents=1;" parent="a6Et4iSOfBraLnJkJ6NL-89" vertex="1">
          <mxGeometry width="30" height="20" as="geometry">
            <mxRectangle width="30" height="20" as="alternateBounds" />
          </mxGeometry>
        </mxCell>
        <mxCell id="a6Et4iSOfBraLnJkJ6NL-91" value="ClientID" style="shape=partialRectangle;html=1;whiteSpace=wrap;connectable=0;strokeColor=inherit;overflow=hidden;fillColor=none;top=0;left=0;bottom=0;right=0;pointerEvents=1;" parent="a6Et4iSOfBraLnJkJ6NL-89" vertex="1">
          <mxGeometry x="30" width="90" height="20" as="geometry">
            <mxRectangle width="90" height="20" as="alternateBounds" />
          </mxGeometry>
        </mxCell>
        <mxCell id="a6Et4iSOfBraLnJkJ6NL-92" value="" style="shape=tableRow;horizontal=0;startSize=0;swimlaneHead=0;swimlaneBody=0;strokeColor=inherit;top=0;left=0;bottom=0;right=0;collapsible=0;dropTarget=0;fillColor=none;points=[[0,0.5],[1,0.5]];portConstraint=eastwest;" parent="a6Et4iSOfBraLnJkJ6NL-82" vertex="1">
          <mxGeometry y="77" width="120" height="20" as="geometry" />
        </mxCell>
        <mxCell id="a6Et4iSOfBraLnJkJ6NL-93" value="" style="shape=partialRectangle;html=1;whiteSpace=wrap;connectable=0;strokeColor=inherit;overflow=hidden;fillColor=none;top=0;left=0;bottom=0;right=0;pointerEvents=1;" parent="a6Et4iSOfBraLnJkJ6NL-92" vertex="1">
          <mxGeometry width="30" height="20" as="geometry">
            <mxRectangle width="30" height="20" as="alternateBounds" />
          </mxGeometry>
        </mxCell>
        <mxCell id="a6Et4iSOfBraLnJkJ6NL-94" value="DateCreated" style="shape=partialRectangle;html=1;whiteSpace=wrap;connectable=0;strokeColor=inherit;overflow=hidden;fillColor=none;top=0;left=0;bottom=0;right=0;pointerEvents=1;" parent="a6Et4iSOfBraLnJkJ6NL-92" vertex="1">
          <mxGeometry x="30" width="90" height="20" as="geometry">
            <mxRectangle width="90" height="20" as="alternateBounds" />
          </mxGeometry>
        </mxCell>
        <mxCell id="TgLSgAsr1P6bt93IIMin-26" value="" style="rounded=0;whiteSpace=wrap;html=1;" vertex="1" parent="1">
          <mxGeometry x="354" y="238" width="30" height="21" as="geometry" />
        </mxCell>
        <mxCell id="TgLSgAsr1P6bt93IIMin-27" value="PassportData" style="rounded=0;whiteSpace=wrap;html=1;" vertex="1" parent="1">
          <mxGeometry x="384" y="238" width="90" height="21" as="geometry" />
        </mxCell>
        <mxCell id="TgLSgAsr1P6bt93IIMin-28" value="" style="rounded=0;whiteSpace=wrap;html=1;" vertex="1" parent="1">
          <mxGeometry x="159" y="489" width="32" height="20" as="geometry" />
        </mxCell>
        <mxCell id="TgLSgAsr1P6bt93IIMin-29" value="Status" style="rounded=0;whiteSpace=wrap;html=1;" vertex="1" parent="1">
          <mxGeometry x="191" y="489" width="90" height="20" as="geometry" />
        </mxCell>
        <mxCell id="TgLSgAsr1P6bt93IIMin-47" style="edgeStyle=orthogonalEdgeStyle;rounded=0;orthogonalLoop=1;jettySize=auto;html=1;exitX=0;exitY=0.5;exitDx=0;exitDy=0;entryX=0.214;entryY=0.001;entryDx=0;entryDy=0;entryPerimeter=0;" edge="1" parent="1" source="a6Et4iSOfBraLnJkJ6NL-27" target="a6Et4iSOfBraLnJkJ6NL-82">
          <mxGeometry relative="1" as="geometry">
            <mxPoint x="220" y="200" as="targetPoint" />
            <Array as="points">
              <mxPoint x="139" y="396" />
              <mxPoint x="139" y="160" />
              <mxPoint x="180" y="160" />
              <mxPoint x="180" y="200" />
            </Array>
          </mxGeometry>
        </mxCell>
        <mxCell id="TgLSgAsr1P6bt93IIMin-48" style="edgeStyle=orthogonalEdgeStyle;rounded=0;orthogonalLoop=1;jettySize=auto;html=1;exitX=0;exitY=0.5;exitDx=0;exitDy=0;entryX=0.5;entryY=0;entryDx=0;entryDy=0;" edge="1" parent="1" source="a6Et4iSOfBraLnJkJ6NL-43" target="a6Et4iSOfBraLnJkJ6NL-26">
          <mxGeometry relative="1" as="geometry">
            <Array as="points">
              <mxPoint x="520" y="227" />
              <mxPoint x="520" y="330" />
              <mxPoint x="220" y="330" />
            </Array>
          </mxGeometry>
        </mxCell>
      </root>
    </mxGraphModel>
  </diagram>
</mxfile>
